<svg xmlns="http://www.w3.org/2000/svg" xmlns:xlink="http://www.w3.org/1999/xlink" width="63.45" height="60.8" viewBox="0 0 63.45 60.8">
  <defs>
    <filter id="Ellipse_2" x="-29" y="-27" width="120.795" height="120.795" filterUnits="userSpaceOnUse">
      <feOffset dy="3" input="SourceAlpha"/>
      <feGaussianBlur stdDeviation="10" result="blur"/>
      <feFlood flood-opacity="0.161"/>
      <feComposite operator="in" in2="blur"/>
      <feComposite in="SourceGraphic"/>
    </filter>
    <filter id="Path_2970" x="-9" y="35.04" width="81.453" height="34.211" filterUnits="userSpaceOnUse">
      <feOffset dy="3" input="SourceAlpha"/>
      <feGaussianBlur stdDeviation="3" result="blur-2"/>
      <feFlood flood-opacity="0.161"/>
      <feComposite operator="in" in2="blur-2"/>
      <feComposite in="SourceGraphic"/>
    </filter>
    <clipPath id="clip-button_shorten">
      <rect width="63.45" height="60.8"/>
    </clipPath>
  </defs>
  <g id="button_shorten" clip-path="url(#clip-button_shorten)">
    <rect width="63.45" height="60.8" fill="#fff"/>
    <g id="Group_600" data-name="Group 600" transform="translate(-340 -657.962)">
      <g id="Group_599" data-name="Group 599" transform="translate(-1235 367)">
        <g id="Group_523" data-name="Group 523" transform="translate(-253 74.962)">
          <g transform="matrix(1, 0, 0, 1, 1828, 216)" filter="url(#Ellipse_2)">
            <circle id="Ellipse_2-2" data-name="Ellipse 2" cx="30.398" cy="30.398" r="30.398" transform="translate(1)" fill="#fff"/>
          </g>
          <path id="Path_2901" data-name="Path 2901" d="M30.4,0A30.4,30.4,0,1,1,0,30.4,30.4,30.4,0,0,1,30.4,0Z" transform="translate(1829 216)" fill="#e9387f"/>
        </g>
        <g transform="matrix(1, 0, 0, 1, 1575, 290.96)" filter="url(#Path_2970)">
          <path id="Path_2970-2" data-name="Path 2970" d="M0,0H63.453V16.211H0Z" transform="translate(0 41.04)" fill="#fff"/>
        </g>
        <path id="Path_2939" data-name="Path 2939" d="M3.732.1A4.56,4.56,0,0,1,.564-.972l.384-.756a4.058,4.058,0,0,0,1.278.756,4.608,4.608,0,0,0,1.518.228,2.669,2.669,0,0,0,1.572-.4,1.293,1.293,0,0,0,.552-1.116A.925.925,0,0,0,5.6-2.94a1.86,1.86,0,0,0-.7-.42,10.45,10.45,0,0,0-1.164-.324,11.345,11.345,0,0,1-1.614-.48,2.513,2.513,0,0,1-1.02-.72A1.849,1.849,0,0,1,.72-6.108,2.225,2.225,0,0,1,1.1-7.386a2.443,2.443,0,0,1,1.08-.864A4.038,4.038,0,0,1,3.8-8.556a4.774,4.774,0,0,1,1.638.276,3.543,3.543,0,0,1,1.29.792l-.372.756a4.122,4.122,0,0,0-1.218-.75A3.748,3.748,0,0,0,3.8-7.716,2.54,2.54,0,0,0,2.262-7.3,1.359,1.359,0,0,0,1.7-6.144a1.075,1.075,0,0,0,.492.96,4.691,4.691,0,0,0,1.488.552q1.092.264,1.716.486a2.569,2.569,0,0,1,1.038.666,1.672,1.672,0,0,1,.414,1.188,2.142,2.142,0,0,1-.378,1.26A2.412,2.412,0,0,1,5.388-.2,4.3,4.3,0,0,1,3.732.1ZM15.084-8.46h.972V0h-.972V-3.876H10.02V0H9.048V-8.46h.972v3.744h5.064ZM22.284.1a3.866,3.866,0,0,1-2.046-.528,3.466,3.466,0,0,1-1.338-1.5,5.232,5.232,0,0,1-.468-2.292,5.361,5.361,0,0,1,.462-2.31,3.385,3.385,0,0,1,1.332-1.5,3.925,3.925,0,0,1,2.058-.522,3.925,3.925,0,0,1,2.058.522,3.385,3.385,0,0,1,1.332,1.5,5.331,5.331,0,0,1,.462,2.3,5.272,5.272,0,0,1-.468,2.3A3.459,3.459,0,0,1,24.33-.432,3.866,3.866,0,0,1,22.284.1Zm0-.84a2.568,2.568,0,0,0,2.094-.906,3.954,3.954,0,0,0,.75-2.586,3.951,3.951,0,0,0-.744-2.58,2.572,2.572,0,0,0-2.1-.9,2.568,2.568,0,0,0-2.094.906,3.934,3.934,0,0,0-.75,2.574,3.959,3.959,0,0,0,.75,2.58A2.561,2.561,0,0,0,22.284-.744ZM35.172,0h-1.08l-1.44-2.712a1.565,1.565,0,0,0-.618-.678,2.1,2.1,0,0,0-.966-.186H29.484V0h-.972V-8.46h3.48a3.187,3.187,0,0,1,2.106.612,2.222,2.222,0,0,1,.726,1.8,2.255,2.255,0,0,1-.558,1.59,2.611,2.611,0,0,1-1.59.762,1.421,1.421,0,0,1,.57.324,2.291,2.291,0,0,1,.45.612ZM31.908-4.392a2.246,2.246,0,0,0,1.47-.408,1.523,1.523,0,0,0,.486-1.236,1.481,1.481,0,0,0-.48-1.212,2.291,2.291,0,0,0-1.476-.4H29.484v3.252ZM39.144,0V-7.62H36.2v-.84h6.888v.84H40.14V0ZM44.88,0V-8.46h5.352v.816h-4.38V-4.7h4.14v.816h-4.14V-.816h4.38V0ZM58.32-8.46h.924V0h-.756l-5.1-6.8V0h-.924V-8.46h.756l5.1,6.8Z" transform="translate(1577 344.002)"/>
      </g>
      <g id="Group_793" data-name="Group 793" transform="translate(-225.945 -5.945)">
        <rect id="Rectangle_298" data-name="Rectangle 298" width="19.123" height="5.737" rx="2.868" transform="translate(588 691.693)" fill="#fff"/>
        <rect id="Rectangle_299" data-name="Rectangle 299" width="19.123" height="5.737" rx="2.868" transform="translate(600.43 685) rotate(90)" fill="#fff"/>
      </g>
    </g>
  </g>
</svg>
